HIERARCHY
ROOT ui
{
	 OFFSET 0 0 0
	 CHANNELS 3 XPosition YPosition Z Position
	 EndSite
	 {
	 OFFSET 0 -1 0
	 }
}
ROOT li
{
	 OFFSET 0 0 0
	 CHANNELS 3 XPosition YPosition Z Position
	 EndSite
	 {
	 OFFSET 0 -1 0
	 }
}
ROOT ul
{
	 OFFSET 0 0 0
	 CHANNELS 3 XPosition YPosition Z Position
	 EndSite
	 {
	 OFFSET 0 -1 0
	 }
}
ROOT ll
{
	 OFFSET 0 0 0
	 CHANNELS 3 XPosition YPosition Z Position
	 EndSite
	 {
	 OFFSET 0 -1 0
	 }
}
ROOT tt
{
	 OFFSET 0 0 0
	 CHANNELS 3 XPosition YPosition Z Position
	 EndSite
	 {
	 OFFSET 0 -1 0
	 }
}
ROOT tb
{
	 OFFSET 0 0 0
	 CHANNELS 3 XPosition YPosition Z Position
	 EndSite
	 {
	 OFFSET 0 -1 0
	 }
}
ROOT td
{
	 OFFSET 0 0 0
	 CHANNELS 3 XPosition YPosition Z Position
	 EndSite
	 {
	 OFFSET 0 -1 0
	 }
}
ROOT v
{
	 OFFSET 0 0 0
	 CHANNELS 3 XPosition YPosition Z Position
	 EndSite
	 {
	 OFFSET 0 -1 0
	 }
}
ROOT bn
{
	 OFFSET 0 0 0
	 CHANNELS 3 XPosition YPosition Z Position
	 EndSite
	 {
	 OFFSET 0 -1 0
	 }
}
MOTION
Frames: 21
Frame Time: 0.002
0.027936296463012697	-0.002900099039077759	0		0.3194711608886719	-2.5260986328125	0		-0.87367236328125	-0.15144581604003907	0		-0.7440247802734375	-2.281923828125	0		1.5361162109375	-1.0417857666015624	0		3.086539794921875	-0.15200862121582032	0		4.38421826171875	0.09638580322265625	0		5.94348046875	0.39903787231445315	0		-0.18603302001953126	5.9086708984375	0		
0.01955483055114746	0.006065446853637696	0		0.33719561767578127	-2.5223857421875	0		-0.8712327880859375	-0.16065103149414062	0		-0.6653816528320312	-2.2849140625	0		1.5533294677734375	-1.07799365234375	0		3.098801513671875	-0.17806692504882812	0		4.3935166015625	0.07544055938720703	0		5.931896484375	0.3914095458984375	0		-0.1858825225830078	5.90852978515625	0		
-0.05001205062866211	-0.0013103790283203124	0		0.2908230895996094	-2.52598095703125	0		-0.9446959838867187	-0.15904014587402343	0		-0.7277366943359375	-2.285404541015625	0		1.5637310791015624	-1.095105224609375	0		3.081149658203125	-0.19479385375976563	0		4.3957236328125	0.04658576583862305	0		5.92419921875	0.3737516479492187	0		-0.1847404022216797	5.90740478515625	0		
0.03350373840332031	7.552610039710998E-4	0		0.3333953857421875	-2.53247216796875	0		-0.8580989379882813	-0.15005796813964845	0		-0.7121460571289062	-2.2886767578125	0		1.5890042724609375	-1.1223458251953125	0		3.130307373046875	-0.22819319152832032	0		4.4190439453125	0.03053026580810547	0		5.92466650390625	0.3740215759277344	0		-0.1836161651611328	5.90530810546875	0		
-0.038965644836425783	0.008459758758544923	0		0.3001457824707031	-2.517151611328125	0		-0.9316215209960937	-0.14839208984375	0		-0.7044932861328125	-2.281833984375	0		1.60138720703125	-1.13542626953125	0		3.134825927734375	-0.22310751342773438	0		4.4325478515625	0.0355947380065918	0		5.9251005859375	0.374302734375	0		-0.18249734497070313	5.9042421875	0		
0.03840077209472656	0.003656693935394287	0		0.3515726013183594	-2.52867138671875	0		-0.8572161865234375	-0.1502108154296875	0		-0.7090145263671875	-2.286834716796875	0		1.5976536865234374	-1.155317138671875	0		3.139881591796875	-0.25901016235351565	0		4.44660986328125	0.001667183995246887	0		5.90015771484375	0.3418502502441406	0		-0.1994816131591797	5.89539111328125	0		
-0.04829595184326172	-0.0014426770210266113	0		0.32105474853515625	-2.528324951171875	0		-0.8689602661132813	-0.16111451721191405	0		-0.702667724609375	-2.2989140625	0		1.613834228515625	-1.1783875732421876	0		3.1421318359375	-0.2708653259277344	0		4.43988916015625	-0.0060344190597534176	0		5.89250146484375	0.3422277526855469	0		-0.21352413940429688	5.88353955078125	0		
0.030990476608276366	-0.0031998770236968993	0		0.3504332580566406	-2.531560302734375	0		-0.8686527099609375	-0.16110835266113283	0		-0.7042975463867187	-2.30188037109375	0		1.6329725341796875	-1.199464599609375	0		3.166119140625	-0.30292605590820315	0		4.45303759765625	-0.02092839241027832	0		5.8836259765625	0.3266194458007812	0		-0.19836866760253907	5.894421875	0		
-0.04776023101806641	-0.0013306280374526978	0		0.30575918579101563	-2.53202099609375	0		-0.9302872924804687	-0.14844599914550782	0		-0.6861550903320313	-2.32001611328125	0		1.64408251953125	-1.2164388427734374	0		3.161436767578125	-0.29568057250976565	0		4.46903076171875	-0.044842784881591796	0		5.884837890625	0.32591073608398435	0		-0.19638349914550782	5.8924658203125	0		
0.03946115112304688	0.0038935279846191405	0		0.36398870849609377	-2.5344931640625	0		-0.8561304931640625	-0.15012129211425781	0		-0.6859097900390625	-2.31993994140625	0		1.659188720703125	-1.2264327392578125	0		3.200198974609375	-0.3368616943359375	0		4.481197265625	-0.04470989227294922	0		5.87599267578125	0.32630319213867187	0		-0.19543075561523438	5.891548828125	0		
-0.047501399993896486	-0.001107200026512146	0		0.3321390686035156	-2.536034912109375	0		-0.8681422729492188	-0.16089932250976563	0		-0.6198909301757812	-2.33449365234375	0		1.655118408203125	-1.2462154541015624	0		3.20030224609375	-0.33663958740234373	0		4.495140625	-0.05958904266357422	0		5.86707666015625	0.32669509887695314	0		-0.21062232971191405	5.88082080078125	0		
0.031504465103149415	-0.0027439990043640135	0		0.35817153930664064	-2.5411328125	0		-0.8681184692382813	-0.16076792907714843	0		-0.69879833984375	-2.332567138671875	0		1.671919189453125	-1.27118896484375	0		3.217989990234375	-0.37058367919921875	0		4.50886181640625	-0.08946076202392578	0		5.8590888671875	0.327076171875	0		-0.21075082397460937	5.88096875	0		
-0.04753513717651367	-7.769100069999695E-4	0		0.3301921081542969	-2.538667236328125	0		-0.868168701171875	-0.1606067657470703	0		-0.6309263916015625	-2.34507958984375	0		1.6737623291015624	-1.283994384765625	0		3.220824462890625	-0.38236691284179686	0		4.51472998046875	-0.09724726104736328	0		5.86376904296875	0.30132858276367186	0		-0.21092657470703124	5.8811435546875	0		
0.03132625007629394	-0.002358675003051758	0		0.34002947998046873	-2.546555908203125	0		-0.9182684326171875	-0.15791891479492187	0		-0.6533593139648437	-2.37966455078125	0		1.70746826171875	-1.303098876953125	0		3.25740576171875	-0.41247503662109375	0		4.51952685546875	-0.10501658630371094	0		5.85971923828125	0.30967044067382815	0		-0.20818910217285155	5.8773154296875	0		
-0.027843128204345702	4.587480127811432E-4	0		0.3718883972167969	-2.544638671875	0		-0.8364030151367188	-0.15251490783691407	0		-0.6056325073242188	-2.39091845703125	0		1.7221827392578124	-1.3139945068359375	0		3.279317138671875	-0.4024212646484375	0		4.55416552734375	-0.12207437896728515	0		5.8724326171875	0.3008481140136719	0		-0.1933484649658203	5.88839404296875	0		
0.030879093170166017	-0.0018697179555892944	0		0.35567843627929685	-2.542218994140625	0		-0.8406861572265625	-0.15522572326660156	0		-0.6169732055664062	-2.40155712890625	0		1.7437904052734374	-1.328938232421875	0		3.287569091796875	-0.45221929931640625	0		4.56676220703125	-0.136901611328125	0		5.85517578125	0.30133059692382813	0		-0.17570059204101562	5.884470703125	0		
-0.022421791076660157	-5.921600013971329E-5	0		0.3892217102050781	-2.5582685546875	0		-0.8350484008789063	-0.16000604248046876	0		-0.5685506591796875	-2.42976123046875	0		1.7453568115234375	-1.3416611328125	0		3.302248046875	-0.45306134033203127	0		4.5703203125	-0.14962535095214843	0		5.849791015625	0.29470449829101564	0		-0.21010148620605468	5.880091796875	0		
-0.017838993072509766	-0.004795786857604981	0		0.34081781005859374	-2.562477783203125	0		-0.8354151000976563	-0.15969668579101562	0		-0.6040548706054687	-2.44410302734375	0		1.7778348388671874	-1.3576673583984376	0		3.3156142578125	-0.47987216186523435	0		4.59463525390625	-0.18153970336914063	0		5.8543330078125	0.28599267578125	0		-0.20951335144042968	5.87839404296875	0		
-0.023203962326049803	5.96041977405548E-4	0		0.368376953125	-2.565412109375	0		-0.8208104858398437	-0.1575045928955078	0		-0.5975841674804687	-2.45583056640625	0		1.7503050537109375	-1.3690531005859374	0		3.3421396484375	-0.48579046630859374	0		4.60927978515625	-0.1753371124267578	0		5.84591796875	0.28642605590820314	0		-0.19484132385253905	5.8885869140625	0		
0.03740032577514649	0.006365030765533447	0		0.36995468139648435	-2.562057861328125	0		-0.8231832885742187	-0.14911123657226563	0		-0.548316162109375	-2.483950927734375	0		1.7908311767578124	-1.371085205078125	0		3.33932080078125	-0.5223944702148438	0		4.61473779296875	-0.18402163696289062	0		5.8454658203125	0.28680068969726563	0		-0.19529414367675782	5.8889609375	0		
-0.019183961868286133	-0.0036720929145812988	0		0.42724215698242185	-2.585225341796875	0		-0.836760009765625	-0.15857353210449218	0		-0.553035400390625	-2.507502197265625	0		1.794241943359375	-1.3817197265625	0		3.383820068359375	-0.5244381103515625	0		4.6409609375	-0.2138872528076172	0		5.84498828125	0.2871995849609375	0		-0.1957637939453125	5.8893681640625	0		
